<?xml version="1.0" standalone="no"?>
<svg xmlns:xlink="http://www.w3.org/1999/xlink" id="wave" style="transform:rotate(180deg); transition: 0.3s" viewBox="0 0 1440 490" version="1.1" xmlns="http://www.w3.org/2000/svg"><defs><linearGradient id="sw-gradient-0" x1="0" x2="0" y1="1" y2="0"><stop stop-color="rgba(0, 0, 0, 1)" offset="0%"/><stop stop-color="rgba(166.575, 166.575, 166.575, 1)" offset="100%"/></linearGradient></defs><path style="transform:translate(0, 0px); opacity:1" fill="url(#sw-gradient-0)" d="M0,147L360,98L720,49L1080,196L1440,196L1800,294L2160,49L2520,392L2880,392L3240,98L3600,196L3960,49L4320,196L4680,343L5040,49L5400,0L5760,392L6120,343L6480,294L6840,441L7200,441L7560,392L7920,147L8280,98L8640,343L8640,490L8280,490L7920,490L7560,490L7200,490L6840,490L6480,490L6120,490L5760,490L5400,490L5040,490L4680,490L4320,490L3960,490L3600,490L3240,490L2880,490L2520,490L2160,490L1800,490L1440,490L1080,490L720,490L360,490L0,490Z"/></svg>